<svg width="834" height="273" viewBox="0 0 834 273" fill="none" xmlns="http://www.w3.org/2000/svg">
<path d="M207.2 267.282C199 264.182 188.3 254.682 191.9 253.582C192.6 253.282 198.3 251.382 204.5 249.382C216.2 245.582 231.4 238.382 241.2 232.182C244.3 230.182 247 228.782 247.2 228.982C247.9 229.682 244.4 244.482 242.2 249.482C239.8 255.182 232.5 263.082 227.3 265.682C221.9 268.382 212.2 269.182 207.2 267.282Z" fill="#9F9F9F"/>
<path d="M327 269.582C315.8 265.282 308.9 254.282 309.7 242.682C310.3 235.282 312.3 230.982 317.3 225.982C323.2 219.982 327.7 218.382 338.5 218.382C349.2 218.382 353.8 219.982 359.6 225.782C366.6 232.882 368.9 242.282 365.9 252.282C361.5 267.682 343 275.782 327 269.582ZM347.5 258.782C352.8 255.182 355.1 249.982 354.6 243.382C353.7 230.682 341.6 223.882 330.8 229.682C319.6 235.682 319.1 252.482 329.9 258.982C334.9 261.982 343.1 261.782 347.6 258.782H347.5Z" fill="white"/>
<path d="M441.8 270.982C437.6 269.782 429.7 266.082 429.7 265.282C429.7 264.482 433.9 256.982 434.4 256.982C434.5 256.982 436.8 257.882 439.6 259.182C446.5 262.182 456.5 262.282 459.4 259.382C462.9 255.782 461.1 253.082 454.1 251.082C440.8 247.382 437.4 245.982 434 242.582C430.7 239.282 430.5 238.682 430.9 233.282C431.7 223.282 439.1 218.082 452.4 217.982C459.5 217.982 469.1 220.282 470.2 222.282C470.5 222.682 469.8 225.082 468.6 227.482L466.4 231.682L463 229.882C458 227.382 447.3 227.382 444.4 229.982C443.1 231.182 442.2 232.382 442.2 232.982C442.2 235.282 446.8 237.982 453.9 239.582C468.5 243.082 472.8 246.782 472.8 255.482C472.8 265.682 466 270.882 452.2 271.282C447.6 271.482 442.8 271.282 441.7 270.982H441.8Z" fill="white"/>
<path d="M513.5 270.982C510.9 270.382 501.4 266.382 501.4 265.782C501.4 265.182 505.8 256.882 506.1 256.882C506.2 256.882 508.6 257.782 511.3 259.082C516.4 261.282 525.3 262.082 529.5 260.682C532.3 259.782 533.7 255.382 532 253.282C531.3 252.482 526.5 250.782 521.2 249.482C510 246.782 505.6 243.982 503.6 238.682C500.8 231.082 504.2 223.382 512.2 219.782C520.1 216.182 540.3 218.082 542 222.582C542.3 223.282 541.5 225.682 540.2 227.782L538 231.482L534.6 229.682C530.4 227.382 519.1 227.182 516.6 229.282C515.5 230.082 514.9 231.882 515.1 233.482C515.4 236.282 518.5 237.682 531.3 240.982C541.4 243.482 546.6 250.582 544.4 258.882C543.1 263.782 537.5 268.882 532.1 270.382C528.1 271.582 517.2 271.782 513.3 270.782L513.5 270.982Z" fill="white"/>
<path d="M577.3 270.982C577.3 270.582 577.2 258.582 577.1 244.282L576.8 218.482L579.4 218.182C581.7 217.982 584.1 220.582 598.4 238.582L614.7 259.282L615 238.682L615.2 217.982H618.4H621.6L621.4 244.582C621.1 268.382 620.9 271.282 619.3 271.582C617.1 271.982 613.3 267.782 597.4 247.582C590.3 238.582 584 230.982 583.5 230.782C582.9 230.582 582.7 237.982 582.9 250.782L583.2 271.282L580.4 271.582C578.7 271.782 577.4 271.582 577.4 271.082L577.3 270.982Z" fill="white"/>
<path d="M651.5 269.782C639.5 265.482 633.1 256.782 633.1 244.782C633.1 229.582 643 219.282 658.6 218.082C675.9 216.882 688.3 227.882 688.2 244.582C688.2 248.182 687.6 252.782 686.7 254.782C681.2 267.782 665.1 274.582 651.4 269.782H651.5ZM671 263.182C682.5 257.582 685.7 240.282 676.9 230.582C672 225.182 665.5 222.682 658.4 223.482C651.9 224.282 647.6 226.682 643.3 231.882C640.6 235.282 640 236.982 639.7 243.082C639.3 250.982 640.8 255.182 645.6 259.882C651.9 265.782 662.6 267.182 670.9 263.182H671Z" fill="white"/>
<path d="M723.9 244.982V217.982H736.9C752.6 217.982 759.2 219.682 765.3 225.182C771.2 230.482 773.5 235.982 773.5 244.482C773.5 256.082 767.8 264.782 756.8 269.382C754.2 270.582 748.4 271.282 738.4 271.582L723.8 272.082V244.982H723.9ZM755 263.482C772.9 255.282 770.4 228.882 751.3 224.482C748.7 223.882 742.9 223.282 738.4 223.282H730.2V244.382V265.482H740.5C748.2 265.482 751.8 264.982 754.9 263.482H755Z" fill="white"/>
<path d="M776.7 271.382C776.7 271.282 779.7 264.782 783.1 256.982C786.7 249.182 792.1 237.282 795.1 230.582C800.3 219.082 800.8 218.482 803.9 218.182C806.6 217.882 807.5 218.282 808.2 220.282C808.7 221.682 814.2 233.482 820.3 246.682C826.4 259.782 831.5 270.682 831.5 271.182C831.5 271.482 830 271.782 828.3 271.782C825.3 271.782 824.8 271.182 822 264.882L818.9 257.982H804H789.1L786.4 264.082C784.8 267.382 783.1 270.382 782.5 270.882C781.4 271.582 776.6 272.082 776.6 271.382H776.7ZM811.9 243.582C809.8 239.082 807.5 233.782 806.6 231.982C805.8 230.082 804.5 228.482 803.8 228.482C802.6 228.482 796.4 240.882 792.9 249.982C792.4 251.482 793.6 251.682 804 251.682H815.6L811.9 243.582Z" fill="white"/>
<path d="M369.6 270.082C369.6 269.682 373.5 260.782 378.1 250.282C382.8 239.882 388 228.282 389.7 224.582L392.7 217.982L398.7 218.282L404.6 218.582L416.1 244.282C422.4 258.382 427.6 270.182 427.6 270.482C427.6 270.582 424.9 270.782 421.4 270.782H415.3L413.1 265.482L410.9 260.182H398.5H385.9L383.9 265.482L381.9 270.782H375.8C372.4 270.782 369.7 270.482 369.7 270.182L369.6 270.082ZM405.5 249.382C405.5 247.482 400 234.782 399.3 234.782C397.5 234.882 396 236.982 393.5 242.882C392 246.482 390.8 249.782 390.8 250.082C390.8 250.382 394.2 250.582 398.2 250.582C403.4 250.582 405.6 250.182 405.6 249.282L405.5 249.382Z" fill="white"/>
<path d="M481.4 244.282V217.882H487.2H493V244.282V270.682H487.2H481.4V244.282Z" fill="white"/>
<path d="M701.8 244.282V217.882H705H708.2V244.282V270.682H705H701.8V244.282Z" fill="white"/>
<path d="M184.2 241.382C179.3 234.482 173.8 223.382 175 222.882C175.7 222.682 179.6 221.982 183.6 221.282C200.6 218.282 226.7 207.882 247.1 195.982L252.7 192.782L252.2 195.582C252 197.282 251.3 202.782 250.6 207.982C250 213.182 249.3 217.482 249.2 217.582C247.4 218.882 230.3 229.182 225 231.982C215.8 237.182 199.9 242.882 192.4 243.782C186.6 244.482 186.4 244.382 184.1 241.182L184.2 241.382Z" fill="#9F9F9F"/>
<path d="M169.9 205.482C168 200.782 166.6 196.882 166.8 196.582C167 196.382 171 195.382 175.7 194.382C198.8 189.282 224.5 176.882 247.7 159.382C252 156.182 255.6 153.782 255.8 153.982C256 154.182 254 160.882 251.4 168.882L246.7 183.282L235.9 189.882C230.1 193.582 220.3 198.982 214.2 201.882C202.7 207.482 182.7 213.782 176.8 213.782C173.4 213.782 173.2 213.482 169.9 205.382V205.482Z" fill="#9F9F9F"/>
<path d="M311.6 96.682V0.582031L336.2 0.88205C359.5 1.18205 360.9 1.28204 365.8 3.68204C377.7 9.58204 384 20.5821 385.5 37.882C386.7 51.982 386.7 141.782 385.5 154.982C383.9 172.182 377.1 183.382 364.4 189.382C358.7 191.982 357.8 192.082 335.1 192.482L311.6 192.882V96.682ZM352.3 163.982C353.5 163.482 355.4 161.482 356.5 159.682C358.4 156.482 358.5 153.382 358.8 101.982C359.2 37.8821 359.1 35.382 354.3 30.582C351.2 27.482 350.2 27.082 344.9 27.082H339V96.682V166.182L344.6 165.682C347.6 165.382 351 164.582 352.3 163.982Z" fill="white"/>
<path d="M402.7 185.582C402.3 181.582 402.3 144.282 402.6 102.482C403 60.6821 403.3 20.7821 403.3 13.6821V0.682129H436H468.7V13.8821V27.0821H451.9C442.6 27.0821 433.9 27.4821 432.3 28.1821L429.7 29.2821L429.9 54.7821L430.2 80.3821H446.5H462.8L463.3 82.9821C463.6 84.4821 463.7 90.4821 463.5 96.3821L463.1 107.282L446.6 107.482L430 107.782L429.7 136.582L429.5 165.282H449H468.5V178.982V192.682H435.9H403.3L402.5 185.582H402.7Z" fill="white"/>
<path d="M485.6 96.682V0.682037H499.1H512.6L519.1 22.4821C540.3 93.5821 543.6 104.682 543.6 105.782C543.6 106.382 543.9 107.282 544.4 107.482C544.8 107.782 545 83.882 544.8 54.282L544.5 0.582031H558.2H572V96.582V192.582H558.5H544.9L541.1 180.282C535.9 163.182 520.1 110.882 516.7 99.582C515.1 94.382 513.4 90.282 512.9 90.282C512.3 90.282 511.8 109.182 511.8 141.482V192.682H498.6H485.4V96.682H485.6Z" fill="white"/>
<path d="M613.2 109.882V27.0821H601.1H589V13.8821V0.682129H627H665V13.8821V27.0821H654.6C648.8 27.0821 643.4 27.3821 642.5 27.6821C641 28.2821 640.8 36.5821 640.8 110.482V192.682H627.1H613.4V109.882H613.2Z" fill="white"/>
<path d="M665.4 190.282C665.7 188.882 669 166.582 672.8 140.382C681.3 80.7821 692.1 7.38215 692.9 3.48215L693.5 0.682129H708.1H722.8L723.3 4.08212C723.6 5.98212 726.3 24.1821 729.2 44.4821C732.2 64.8821 738.1 105.582 742.4 134.982C746.7 164.482 750.3 189.482 750.3 190.682C750.3 192.582 749.5 192.682 737.2 192.682C727.7 192.682 724 192.382 723.6 191.382C723.4 190.682 722 182.182 720.6 172.682L718.2 155.482L708.1 156.182C702.6 156.582 697.9 157.082 697.7 157.382C697.5 157.582 696.3 165.482 695.1 174.882L692.8 192.082L678.9 192.382L664.9 192.682L665.5 190.282H665.4ZM715.1 125.982C714.8 124.082 713.3 112.982 711.7 101.382C710.2 89.7821 708.9 80.1821 708.5 79.8821C708.3 79.6821 707.8 79.6821 707.4 80.0821C706.9 80.5821 700.8 123.682 700.6 127.582C700.6 129.182 701.7 129.382 708 129.382H715.5L715 125.982H715.1Z" fill="white"/>
<path d="M767.9 191.882C767.5 191.582 767.2 148.282 767.2 95.8821V0.682129H780.9H794.6V82.9821V165.282L813.9 165.482L833.1 165.782V178.982V192.182L800.8 192.482C783.1 192.582 768.3 192.382 767.9 191.982V191.882Z" fill="white"/>
<path d="M71.1 270.782C56.7 266.082 52.9 258.982 46.8 224.782C39.7 185.082 35 168.682 19.9 131.482C4.30001 92.6821 0 76.6821 0 55.5821C0 37.1821 3.50001 26.7821 13.2 15.9821C22.9 5.4821 41.8 -1.51792 56.3 0.282085C70.1 1.98208 79.4 5.98208 107.2 22.6821L126 33.9821L121.5 37.9821C114.2 44.2821 108.3 48.0821 94.3 55.3821C87 59.1821 80.7 62.6821 80.1 63.2821C78.3 65.0821 93.3 63.2821 100.7 60.8821C112.4 57.0821 129.7 47.9821 158.2 30.7821C200.9 5.08208 211.5 0.582073 229.4 0.582073C240.5 0.582073 245.5 1.78208 255 6.68208C280 19.7821 286.5 51.7821 273.2 95.7821C268.7 110.482 262.1 126.782 257.6 134.382C246.8 152.182 221.4 168.882 187.7 180.282C180.3 182.682 175.8 183.582 167.1 183.882L155.9 184.382L152.6 179.082C148.6 172.682 144.1 169.982 138.3 170.782C127.8 172.282 121.8 184.982 114.4 222.682C111.8 235.982 107.6 250.482 105.4 254.982C103 259.582 97.6 265.282 92.7 268.382C89.4 270.482 86.8 271.082 81.1 271.382C77.1 271.582 72.6 271.382 71.1 270.882V270.782Z" fill="#279ED8"/>
</svg>
